<?xml version="1.0" encoding="UTF-8"?>
<svg id="Layer_2" data-name="Layer 2" xmlns="http://www.w3.org/2000/svg" viewBox="0 0 761.7 579.58">
  <g id="Layer_1-2" data-name="Layer 1">
    <g>
      <path d="M654.99,0h-206.08c-6.36,0-12.22,3.42-15.35,8.95l-103.97,183.48h414.43c13.52,0,22.02-14.59,15.35-26.37L670.36,8.95c-3.14-5.53-9.01-8.95-15.37-8.95"/>
      <path d="M329.59,192.44h0L225.63,8.95C222.49,3.42,216.63,0,210.26,0H29.92C16.38,0,7.88,14.59,14.55,26.37l89.09,157.24c3.06,5.39,3.06,12,0,17.4L2.3,380.15c-3.13,5.52-3.06,12.3.2,17.75l92.74,155.17c6.95,11.62,23.86,11.43,30.52-.35l203.84-360.27Z"/>
      <path d="M369.02,579.58h168.35c8.29,0,15.92-4.45,20-11.67l82.91-146.46c8.67-15.32-2.4-34.3-20-34.3h-168.27c-8.28,0-15.91,4.44-20,11.64l-82.99,146.47c-8.69,15.32,2.38,34.31,20,34.31"/>
    </g>
  </g>
</svg>