<?xml version="1.0" encoding="UTF-8"?>
<svg id="Layer_1" data-name="Layer 1" xmlns="http://www.w3.org/2000/svg" viewBox="0 0 1920 1080">
  <defs>
    <style>
      .cls-1 {
        fill: #196ecc;
      }

      .cls-2 {
        fill: #0a1830;
      }
    </style>
  </defs>
  <g>
    <path class="cls-1" d="M882.99,493.97h-29.43c-.91,0-1.75.49-2.19,1.28l-14.85,26.21h59.19c1.93,0,3.15-2.08,2.19-3.77l-12.71-22.44c-.45-.79-1.29-1.28-2.19-1.28"/>
    <path class="cls-1" d="M836.52,521.45h0l-14.85-26.21c-.45-.79-1.28-1.28-2.19-1.28h-25.76c-1.93,0-3.15,2.08-2.19,3.76l12.73,22.46c.44.77.44,1.71,0,2.49l-14.48,25.59c-.45.79-.44,1.76.03,2.53l13.25,22.16c.99,1.66,3.41,1.63,4.36-.05l29.11-51.46Z"/>
    <path class="cls-1" d="M842.15,576.75h24.05c1.18,0,2.27-.64,2.86-1.67l11.84-20.92c1.24-2.19-.34-4.9-2.86-4.9h-24.03c-1.18,0-2.27.63-2.86,1.66l-11.85,20.92c-1.24,2.19.34,4.9,2.86,4.9"/>
  </g>
  <g>
    <path class="cls-2" d="M933.1,494.29c2.73,0,5.28.47,7.65,1.42,2.37.95,4.39,2.25,6.06,3.9,1.67,1.66,2.98,3.66,3.93,5.99.95,2.34,1.43,4.85,1.43,7.54,0,3.59-.82,6.83-2.45,9.7-1.64,2.88-3.9,5.12-6.81,6.73-2.9,1.61-6.17,2.42-9.81,2.42h-13.27v-37.71h13.27ZM932.91,526.24c3.79,0,6.9-1.23,9.31-3.69,2.41-2.46,3.62-5.6,3.62-9.4s-1.21-6.93-3.62-9.39c-2.41-2.45-5.52-3.68-9.31-3.68h-6.9v26.17h6.9Z"/>
    <path class="cls-2" d="M984.98,517.54c0,.56-.04,1.21-.13,1.95h-23.55c.37,2.35,1.35,4.21,2.94,5.58,1.59,1.37,3.58,2.05,5.95,2.05,1.71,0,3.25-.38,4.6-1.13,1.36-.75,2.42-1.8,3.19-3.13h6.29c-1.15,3.07-2.98,5.48-5.48,7.23-2.5,1.75-5.37,2.63-8.6,2.63-4.23,0-7.77-1.46-10.62-4.38-2.85-2.92-4.27-6.54-4.27-10.87,0-2.86.65-5.45,1.94-7.78,1.29-2.33,3.08-4.16,5.35-5.48,2.27-1.32,4.81-1.99,7.61-1.99s5.46.69,7.74,2.07c2.27,1.38,4.02,3.23,5.23,5.55,1.22,2.32,1.82,4.9,1.82,7.72M970.19,507.6c-2.22,0-4.11.63-5.66,1.89-1.56,1.26-2.58,2.98-3.07,5.15h17.55c-.54-2.21-1.6-3.94-3.16-5.18-1.56-1.24-3.45-1.87-5.65-1.87"/>
    <polygon class="cls-2" points="1019.76 494.29 1019.79 500.07 1008.75 500.07 1008.75 532 1002.59 532 1002.59 500.07 991.57 500.07 991.57 494.29 1019.76 494.29"/>
    <path class="cls-2" d="M1040.38,530.72c-2.36,1.32-5,1.99-7.92,1.99s-5.56-.66-7.92-1.99c-2.36-1.32-4.21-3.15-5.56-5.47-1.35-2.32-2.02-4.92-2.02-7.8s.67-5.5,2.02-7.82c1.35-2.32,3.2-4.14,5.56-5.46,2.36-1.32,5-1.97,7.92-1.97s5.56.66,7.92,1.97c2.36,1.31,4.21,3.14,5.56,5.47,1.35,2.33,2.02,4.94,2.02,7.81s-.67,5.47-2.02,7.8c-1.35,2.32-3.2,4.15-5.56,5.47M1025.68,524.32c1.77,1.79,4.03,2.68,6.78,2.68s5-.89,6.78-2.68c1.77-1.79,2.66-4.08,2.66-6.86s-.89-5.08-2.66-6.86c-1.77-1.79-4.03-2.68-6.78-2.68s-5.01.89-6.78,2.68c-1.77,1.79-2.66,4.08-2.66,6.86s.89,5.08,2.66,6.86"/>
    <path class="cls-2" d="M1066.55,502.76h2.57v5.65h-3.15c-2.45,0-4.29.68-5.53,2.05-1.24,1.37-1.86,3.38-1.86,6.02v15.52h-5.95v-29.08h4.04l1,3.97c2.06-2.75,5.03-4.13,8.89-4.13"/>
    <path class="cls-2" d="M1099.64,517.54c0,.56-.04,1.21-.13,1.95h-23.55c.37,2.35,1.35,4.21,2.94,5.58,1.59,1.37,3.58,2.05,5.95,2.05,1.71,0,3.25-.38,4.6-1.13,1.36-.75,2.42-1.8,3.19-3.13h6.29c-1.15,3.07-2.98,5.48-5.48,7.23-2.5,1.75-5.37,2.63-8.6,2.63-4.23,0-7.77-1.46-10.62-4.38-2.85-2.92-4.28-6.54-4.28-10.87,0-2.86.65-5.45,1.94-7.78,1.29-2.33,3.08-4.16,5.35-5.48,2.27-1.32,4.81-1.99,7.61-1.99s5.46.69,7.74,2.07c2.27,1.38,4.02,3.23,5.23,5.55,1.22,2.32,1.82,4.9,1.82,7.72M1084.84,507.6c-2.22,0-4.11.63-5.66,1.89-1.56,1.26-2.58,2.98-3.07,5.15h17.55c-.54-2.21-1.6-3.94-3.16-5.18-1.56-1.24-3.45-1.87-5.65-1.87"/>
    <path class="cls-2" d="M1119.54,502.26c3.36,0,6.03,1.13,8.03,3.39,1.99,2.26,2.99,5.21,2.99,8.84v17.51h-5.95v-16.3c0-2.65-.56-4.65-1.69-6.02-1.13-1.37-2.78-2.05-4.97-2.05s-4.14.83-5.6,2.48c-1.46,1.66-2.19,3.76-2.19,6.32v15.57h-5.95v-29.08h4.14l1.18,4.05c1.12-1.49,2.54-2.65,4.28-3.47,1.73-.82,3.65-1.24,5.74-1.24"/>
    <path class="cls-2" d="M935.76,556.48h20.09c-.05,3.8-.88,7.21-2.49,10.23-1.61,3.02-3.85,5.37-6.71,7.07-2.87,1.7-6.12,2.55-9.76,2.55-2.73,0-5.29-.49-7.67-1.47-2.39-.98-4.43-2.33-6.12-4.05-1.7-1.72-3.03-3.79-4-6.22-.97-2.43-1.46-5.03-1.46-7.8s.48-5.36,1.44-7.78c.96-2.42,2.29-4.49,3.97-6.21,1.69-1.72,3.71-3.07,6.08-4.06,2.37-.99,4.91-1.49,7.62-1.49,4.58,0,8.6,1.31,12.06,3.92,3.46,2.61,5.62,5.97,6.48,10.07h-6.37c-.81-2.42-2.3-4.36-4.5-5.81-2.19-1.45-4.71-2.18-7.54-2.18-3.81,0-6.93,1.26-9.35,3.79-2.42,2.52-3.63,5.78-3.63,9.76s1.2,7.28,3.59,9.78c2.4,2.51,5.53,3.76,9.39,3.76,3.01,0,5.63-.78,7.86-2.34,2.23-1.56,3.7-3.62,4.42-6.18h-13.4v-5.34Z"/>
    <path class="cls-2" d="M974.82,546.38h2.57v5.65h-3.15c-2.45,0-4.29.68-5.53,2.05-1.24,1.37-1.86,3.38-1.86,6.02v15.52h-5.95v-29.08h4.04l1,3.97c2.06-2.75,5.03-4.13,8.89-4.13"/>
    <path class="cls-2" d="M1001.6,574.35c-2.36,1.32-5,1.99-7.92,1.99s-5.56-.66-7.92-1.99c-2.36-1.32-4.21-3.15-5.56-5.47-1.35-2.32-2.02-4.92-2.02-7.8s.67-5.5,2.02-7.82c1.35-2.32,3.2-4.14,5.56-5.46,2.36-1.32,5-1.97,7.92-1.97s5.56.66,7.92,1.97c2.36,1.31,4.21,3.14,5.56,5.47,1.35,2.33,2.02,4.94,2.02,7.81s-.67,5.47-2.02,7.8c-1.35,2.32-3.2,4.15-5.56,5.47M986.9,567.94c1.77,1.79,4.03,2.68,6.78,2.68s5-.89,6.78-2.68c1.77-1.79,2.66-4.08,2.66-6.86s-.89-5.08-2.66-6.86c-1.77-1.79-4.03-2.68-6.78-2.68s-5.01.89-6.78,2.68c-1.77,1.79-2.66,4.08-2.66,6.86s.89,5.07,2.66,6.86"/>
    <path class="cls-2" d="M1041.6,561.16c0,.56-.04,1.21-.13,1.95h-23.55c.37,2.35,1.35,4.21,2.94,5.58,1.59,1.37,3.58,2.05,5.95,2.05,1.71,0,3.25-.38,4.6-1.13,1.36-.75,2.42-1.8,3.19-3.13h6.29c-1.15,3.07-2.98,5.48-5.48,7.23-2.5,1.75-5.37,2.63-8.6,2.63-4.23,0-7.77-1.46-10.62-4.38-2.85-2.92-4.28-6.54-4.28-10.87,0-2.86.65-5.45,1.94-7.78,1.29-2.33,3.08-4.16,5.35-5.48,2.27-1.32,4.81-1.99,7.61-1.99s5.46.69,7.74,2.07c2.27,1.38,4.02,3.23,5.23,5.55,1.22,2.32,1.82,4.9,1.82,7.72M1026.81,551.22c-2.22,0-4.11.63-5.66,1.89-1.56,1.26-2.58,2.98-3.07,5.15h17.55c-.54-2.21-1.6-3.94-3.16-5.18-1.56-1.24-3.45-1.87-5.65-1.87"/>
    <path class="cls-2" d="M1061.77,545.83c2.85,0,5.42.66,7.71,1.97,2.29,1.31,4.08,3.14,5.36,5.47,1.29,2.33,1.93,4.94,1.93,7.81,0,4.36-1.42,8-4.26,10.91-2.84,2.91-6.42,4.36-10.74,4.36-3.72,0-6.94-1.17-9.65-3.52v13.2h-5.95v-39.5h4.01l1.13,3.58c1.33-1.37,2.89-2.42,4.68-3.17,1.79-.74,3.72-1.12,5.78-1.12M1054.49,567.89c1.81,1.82,4.08,2.73,6.81,2.73s4.98-.91,6.77-2.72c1.78-1.81,2.68-4.09,2.68-6.82s-.89-5.01-2.68-6.82c-1.78-1.81-4.04-2.72-6.77-2.72s-5,.91-6.81,2.74c-1.81,1.82-2.72,4.09-2.72,6.81s.91,4.99,2.72,6.81"/>
  </g>
</svg>